<?xml version="1.0" encoding="UTF-8"?>
<svg xmlns="http://www.w3.org/2000/svg" viewBox="0 0 240 120">
  <defs>
    <mask id="batMask">
      <rect width="100%" height="100%" fill="white"/>
      <path d="M120 25
        L110 35 L90 35 L70 45 L50 60 L70 85 L90 85 L110 85 L120 95
        L130 85 L150 85 L170 85 L190 60 L170 45 L150 35 L130 35 L120 25Z" 
        fill="black"/>
    </mask>
  </defs>
  <!-- Outer black border -->
  <ellipse cx="120" cy="60" rx="118" ry="58" fill="black"/>
  <!-- Yellow fill -->
  <ellipse cx="120" cy="60" rx="115" ry="55" fill="#ffd700"/>
  <!-- Bat symbol -->
  <path d="M120 25
    L95 45 L65 45 L40 60 L65 75 L95 75 L120 95
    L145 75 L175 75 L200 60 L175 45 L145 45 L120 25Z" 
    fill="black"/>
</svg>
